<svg xmlns="http://www.w3.org/2000/svg" xml:space="preserve" width="8.33333in" height="8.33333in" version="1.1" style="shape-rendering:geometricPrecision; text-rendering:geometricPrecision; image-rendering:optimizeQuality; fill-rule:evenodd; clip-rule:evenodd" viewBox="0 0 8333 8333" xmlns:xlink="http://www.w3.org/1999/xlink">
 <defs>
  <style type="text/css">
   
    .fil4 {fill:#333333}
    .fil6 {fill:#333333}
    .fil7 {fill:#595959}
    .fil5 {fill:#E64C3F}
    .fil2 {fill:#E74C3F}
    .fil1 {fill:#FEA577}
    .fil0 {fill:#FEB784}
    .fil3 {fill:#FEC9A3}
   
  </style>
 </defs>
 <g id="Layer_x0020_1">
  <metadata id="CorelCorpID_0Corel-Layer"></metadata>
  <g id="_565438192">
   <g>
    <path class="fil0" d="M4449 3584c-121,0 -220,-99 -220,-220l0 -345 -178 0c-66,0 -133,-37 -167,-92 -28,-47 -29,-103 -4,-150 143,-265 140,-276 124,-348 -14,-60 -35,-151 -35,-329 0,-579 471,-1050 1050,-1050 579,0 1049,471 1049,1050 0,160 -31,334 -66,534 -44,244 -93,520 -93,829 0,67 -54,121 -121,121l0 0c-32,0 -61,-13 -83,-33l-588 275 -2 0 -1 0 -570 -289c-22,29 -56,47 -95,47z"></path>
    <path class="fil0" d="M7575 7283l-2619 0c-67,0 -121,-54 -121,-120l0 -548 0 0c0,0 0,0 0,-1 0,0 0,0 0,0 0,0 0,0 0,0l0 -526c0,-447 -93,-606 -202,-790 -106,-179 -225,-381 -282,-834l-1857 0c-67,0 -121,-54 -121,-121l0 -879c0,-67 54,-121 121,-121l654 0c436,0 873,0 1309,0 66,0 120,54 120,121 0,8 -1,16 -2,23l905 0c-1,-8 -2,-15 -2,-23 0,-67 54,-121 121,-121 353,0 707,-1 1061,-1 0,0 1,0 1,0 564,0 1025,461 1028,1028l5 2244c0,0 0,0 0,0l1 548c1,32 -12,63 -35,86 -22,23 -53,35 -85,35z"></path>
   </g>
   <g>
    <path class="fil1" d="M4449 3584c-121,0 -220,-99 -220,-220l0 -83c39,-68 87,-132 144,-189 347,-347 912,-347 1259,0l278 272c-1,33 -1,66 -1,99 0,67 -54,121 -121,121l0 0c-32,0 -61,-13 -83,-33l-588 275 -2 0 -1 0 -570 -289c-22,29 -56,47 -95,47z"></path>
    <path class="fil1" d="M4196 3343l261 0c66,0 120,54 120,121 0,8 -1,16 -2,23l905 0c-1,-8 -2,-15 -2,-23 0,-67 54,-121 121,-121l289 0 1803 1767 3 1504c0,0 0,0 0,0l1 262c-28,11 -58,16 -89,16l-83 0c-76,0 -148,-30 -202,-83l-2226 -2201c-266,28 -530,-65 -722,-256 -168,-168 -261,-392 -261,-630 0,-133 29,-262 84,-379z"></path>
   </g>
   <path class="fil2" d="M1467 5055c-472,0 -856,-384 -856,-856 0,-215 81,-421 226,-580 139,-149 323,-244 524,-269 13,-4 26,-7 39,-7l1094 0c66,0 120,54 120,121l0 879c0,67 -54,121 -120,121l-213 0c-113,348 -440,591 -814,591z"></path>
   <path class="fil3" d="M7523 6726c-31,0 -62,-11 -85,-35l-2286 -2260c-238,51 -486,-21 -661,-196 -137,-137 -213,-319 -213,-513 0,-193 76,-375 213,-512 282,-283 742,-283 1024,0l2173 2130c17,16 27,36 32,56 12,3 -28,1140 -32,1248 -1,45 -37,82 -82,82l-83 0z"></path>
   <path class="fil2" d="M4150 4266c-333,-334 -333,-877 0,-1211 153,-152 355,-241 571,-250 203,-8 401,56 560,180 12,6 23,14 33,23l773 773c47,47 47,124 0,171l-622 622c-47,47 -123,47 -170,0l-151 -151c-326,167 -730,107 -994,-157z"></path>
   <path class="fil4" d="M6013 1762c-141,-413 -533,-712 -994,-712 -337,0 -637,159 -829,407 27,-30 69,-45 112,-37 259,52 294,215 314,313 12,56 17,69 30,78 46,29 210,58 796,-74 153,-35 308,-52 460,-50 51,1 93,32 111,75z"></path>
   <path class="fil5" d="M7491 6320l-2535 0 -121 0 0 843c0,66 54,120 121,120l2619 0c67,0 121,-54 120,-121l0 -842 -121 0 -83 0z"></path>
   <polygon class="fil6" points="7491,6320 4956,6320 4835,6320 4835,6741 7695,6741 7699,6320 7574,6320 "></polygon>
   <g>
    <rect class="fil7" x="5032" y="6320" width="62.2689" height="421.257"></rect>
    <rect class="fil7" x="5299" y="6320" width="62.2689" height="421.257"></rect>
    <rect class="fil7" x="5566" y="6320" width="62.2689" height="421.257"></rect>
    <rect class="fil7" x="5833" y="6320" width="62.2689" height="421.257"></rect>
    <rect class="fil7" x="6101" y="6320" width="62.2689" height="421.257"></rect>
    <rect class="fil7" x="6368" y="6320" width="62.2689" height="421.257"></rect>
    <rect class="fil7" x="6635" y="6320" width="62.2689" height="421.257"></rect>
    <rect class="fil7" x="6902" y="6320" width="62.2689" height="421.257"></rect>
    <rect class="fil7" x="7170" y="6320" width="62.2689" height="421.257"></rect>
    <rect class="fil7" x="7437" y="6320" width="62.2689" height="421.257"></rect>
   </g>
  </g>
 </g>
</svg>