<?xml version="1.0" encoding="utf-8"?>
<!-- Generator: Adobe Illustrator 26.0.2, SVG Export Plug-In . SVG Version: 6.00 Build 0)  -->
<svg version="1.1" id="Layer_32" xmlns="http://www.w3.org/2000/svg" xmlns:xlink="http://www.w3.org/1999/xlink" x="0px" y="0px"
	 viewBox="0 0 64 64" style="enable-background:new 0 0 64 64;" xml:space="preserve">
<g>
	<rect x="4" y="36" style="fill:#E3E8F6;" width="14" height="22"/>
	<path style="fill:#F8F7FE;" d="M7,52c0,1.657,1.343,3,3,3h8V36H7V52z"/>
	<rect x="8" y="40" style="fill:#77A0D3;" width="6" height="12"/>
	<path style="fill:#C0DAFB;" d="M10,47c0,1.657,1.343,3,3,3h1V40h-4V47z"/>
	<rect x="46" y="36" style="fill:#E3E8F6;" width="14" height="22"/>
	<path style="fill:#F8F7FE;" d="M49,52c0,1.657,1.343,3,3,3h8V36H49V52z"/>
	<rect x="2" y="32" style="fill:#77A0D3;" width="16" height="4"/>
	<path style="fill:#C0DAFB;" d="M7,34h11v-2H5C5,33.105,5.895,34,7,34z"/>
	<rect x="18" y="16" style="fill:#E3E8F6;" width="28" height="42"/>
	<path style="fill:#F8F7FE;" d="M21,52c0,1.657,1.343,3,3,3h22V16H21V52z"/>
	<rect x="25" y="50" style="fill:#77A0D3;" width="14" height="8"/>
	<rect x="25" y="50" style="fill:#C0DAFB;" width="14" height="5"/>
	<rect x="22" y="22" style="fill:#A1CDF9;" width="4" height="4"/>
	<path style="fill:#C0DAFB;" d="M23,23c0,1.105,0.895,2,2,2h1v-3h-3V23z"/>
	<rect x="30" y="22" style="fill:#A1CDF9;" width="4" height="4"/>
	<path style="fill:#C0DAFB;" d="M31,23c0,1.105,0.895,2,2,2h1v-3h-3V23z"/>
	<rect x="38" y="22" style="fill:#A1CDF9;" width="4" height="4"/>
	<path style="fill:#C0DAFB;" d="M39,23c0,1.105,0.895,2,2,2h1v-3h-3V23z"/>
	<rect x="22" y="30" style="fill:#A1CDF9;" width="4" height="4"/>
	<path style="fill:#C0DAFB;" d="M23,31c0,1.105,0.895,2,2,2h1v-3h-3V31z"/>
	<rect x="30" y="30" style="fill:#A1CDF9;" width="4" height="4"/>
	<path style="fill:#C0DAFB;" d="M31,31c0,1.105,0.895,2,2,2h1v-3h-3V31z"/>
	<rect x="38" y="30" style="fill:#A1CDF9;" width="4" height="4"/>
	<path style="fill:#C0DAFB;" d="M39,31c0,1.105,0.895,2,2,2h1v-3h-3V31z"/>
	<rect x="22" y="38" style="fill:#A1CDF9;" width="4" height="4"/>
	<path style="fill:#C0DAFB;" d="M23,39c0,1.105,0.895,2,2,2h1v-3h-3V39z"/>
	<rect x="30" y="38" style="fill:#A1CDF9;" width="4" height="4"/>
	<path style="fill:#C0DAFB;" d="M31,39c0,1.105,0.895,2,2,2h1v-3h-3V39z"/>
	<rect x="38" y="38" style="fill:#A1CDF9;" width="4" height="4"/>
	<path style="fill:#C0DAFB;" d="M39,39c0,1.105,0.895,2,2,2h1v-3h-3V39z"/>
	<rect x="16" y="12" style="fill:#77A0D3;" width="32" height="4"/>
	<path style="fill:#C0DAFB;" d="M22,14h26v-2H19.184C19.597,13.163,20.696,14,22,14z"/>
	<rect x="46" y="32" style="fill:#77A0D3;" width="16" height="4"/>
	<path style="fill:#C0DAFB;" d="M51,34h11v-2H49C49,33.105,49.895,34,51,34z"/>
	<rect x="23" y="46" style="fill:#77A0D3;" width="18" height="4"/>
	<path style="fill:#C0DAFB;" d="M28,48h13v-2H26C26,47.105,26.895,48,28,48z"/>
	<rect x="50" y="40" style="fill:#77A0D3;" width="6" height="12"/>
	<path style="fill:#C0DAFB;" d="M52,47c0,1.657,1.343,3,3,3h1V40h-4V47z"/>
	<circle style="fill:#AA2B24;" cx="32" cy="10" r="8"/>
	<circle style="fill:#D24034;" cx="32" cy="10" r="6"/>
	<rect x="2" y="58" style="fill:#77A0D3;" width="60" height="4"/>
	<path style="fill:#C0DAFB;" d="M6,60h56v-2H4C4,59.105,4.895,60,6,60z"/>
	<g>
		<path d="M62,37c0.553,0,1-0.447,1-1v-4c0-0.553-0.447-1-1-1H47V17h1c0.553,0,1-0.447,1-1v-4c0-0.553-0.447-1-1-1h-7.059
			C40.978,10.671,41,10.338,41,10c0-4.963-4.037-9-9-9s-9,4.037-9,9c0,0.338,0.022,0.671,0.059,1H16c-0.553,0-1,0.447-1,1v4
			c0,0.553,0.447,1,1,1h1v14H2c-0.553,0-1,0.447-1,1v4c0,0.553,0.447,1,1,1h1v20H2c-0.553,0-1,0.447-1,1v4c0,0.553,0.447,1,1,1h60
			c0.553,0,1-0.447,1-1v-4c0-0.553-0.447-1-1-1h-1V37H62z M61,33v2H47v-2H61z M47,13v2h-7.522c0.413-0.616,0.744-1.289,0.997-2H47z
			 M32,3c3.859,0,7,3.141,7,7s-3.141,7-7,7s-7-3.141-7-7S28.141,3,32,3z M17,13h6.525c0.252,0.711,0.583,1.384,0.997,2H17V13z
			 M26.355,17c1.545,1.248,3.508,2,5.645,2s4.099-0.752,5.645-2H45v40h-5v-6h1c0.553,0,1-0.447,1-1v-4c0-0.553-0.447-1-1-1H23
			c-0.553,0-1,0.447-1,1v4c0,0.553,0.447,1,1,1h1v6h-5V17H26.355z M24,49v-2h16v2H24z M31,51v6h-5v-6H31z M33,51h5v6h-5V51z M3,33
			h14v2H3V33z M5,37h12v20H5V37z M61,61H3v-2h58V61z M59,57H47V37h12V57z"/>
		<path d="M22,27h4c0.553,0,1-0.447,1-1v-4c0-0.553-0.447-1-1-1h-4c-0.553,0-1,0.447-1,1v4C21,26.553,21.447,27,22,27z M23,23h2v2
			h-2V23z"/>
		<path d="M30,27h4c0.553,0,1-0.447,1-1v-4c0-0.553-0.447-1-1-1h-4c-0.553,0-1,0.447-1,1v4C29,26.553,29.447,27,30,27z M31,23h2v2
			h-2V23z"/>
		<path d="M38,27h4c0.553,0,1-0.447,1-1v-4c0-0.553-0.447-1-1-1h-4c-0.553,0-1,0.447-1,1v4C37,26.553,37.447,27,38,27z M39,23h2v2
			h-2V23z"/>
		<path d="M22,35h4c0.553,0,1-0.447,1-1v-4c0-0.553-0.447-1-1-1h-4c-0.553,0-1,0.447-1,1v4C21,34.553,21.447,35,22,35z M23,31h2v2
			h-2V31z"/>
		<path d="M30,35h4c0.553,0,1-0.447,1-1v-4c0-0.553-0.447-1-1-1h-4c-0.553,0-1,0.447-1,1v4C29,34.553,29.447,35,30,35z M31,31h2v2
			h-2V31z"/>
		<path d="M38,35h4c0.553,0,1-0.447,1-1v-4c0-0.553-0.447-1-1-1h-4c-0.553,0-1,0.447-1,1v4C37,34.553,37.447,35,38,35z M39,31h2v2
			h-2V31z"/>
		<path d="M22,43h4c0.553,0,1-0.447,1-1v-4c0-0.553-0.447-1-1-1h-4c-0.553,0-1,0.447-1,1v4C21,42.553,21.447,43,22,43z M23,39h2v2
			h-2V39z"/>
		<path d="M30,43h4c0.553,0,1-0.447,1-1v-4c0-0.553-0.447-1-1-1h-4c-0.553,0-1,0.447-1,1v4C29,42.553,29.447,43,30,43z M31,39h2v2
			h-2V39z"/>
		<path d="M38,43h4c0.553,0,1-0.447,1-1v-4c0-0.553-0.447-1-1-1h-4c-0.553,0-1,0.447-1,1v4C37,42.553,37.447,43,38,43z M39,39h2v2
			h-2V39z"/>
		<path d="M50,53h6c0.553,0,1-0.447,1-1V40c0-0.553-0.447-1-1-1h-6c-0.553,0-1,0.447-1,1v12C49,52.553,49.447,53,50,53z M51,41h4v10
			h-4V41z"/>
		<path d="M14,39H8c-0.553,0-1,0.447-1,1v12c0,0.553,0.447,1,1,1h6c0.553,0,1-0.447,1-1V40C15,39.447,14.553,39,14,39z M13,51H9V41
			h4V51z"/>
		<polygon points="31,15 33,15 33,11 37,11 37,9 33,9 33,5 31,5 31,9 27,9 27,11 31,11 		"/>
	</g>
</g>
</svg>
