<?xml version="1.0" encoding="UTF-8" standalone="no"?> <svg xmlns="http://www.w3.org/2000/svg" viewBox="0 0 60 60"><defs><style>.a{fill:#e82e5f;}.b{fill:none;stroke:#1c4db8;stroke-linecap:round;stroke-linejoin:round;stroke-width:1.5px;}</style></defs><title>131-candidate-meeting-desk</title><path class="a" d="M30.442,20.52a9.59,9.59,0,0,1-1.5-.118L27.109,32.127a1,1,0,0,0,.176.738l1.994,2.771a1,1,0,0,0,.812.416h.7a1,1,0,0,0,.812-.416L33.6,32.865a1,1,0,0,0,.176-.738L31.938,20.4A9.578,9.578,0,0,1,30.442,20.52Z"/><polyline class="b" points="42.788 38.478 42.788 35.334 40.813 32.871"/><path class="b" d="M20.924,31.1a6.071,6.071,0,0,1-5.367,4.316c-3.681,0-6.617-1.927-6.617-16.686a2.853,2.853,0,0,1,2.853-2.853c3.226,0,2.853,3.6,2.853,4.122,2.221-1.214,3.634,1.853.475,4.194L15.6,29c3.686-6.266,8.728-8.335,11.883-8.948"/><path class="b" d="M33.171,20.121a16.352,16.352,0,0,1,13.6,15.291v3.066"/><polyline class="b" points="44.638 58.5 45.803 52.467 15.08 52.467 16.245 58.5"/><line class="b" x1="20.924" y1="31.096" x2="20.924" y2="38.478"/><path class="b" d="M41.251,29.318A2.353,2.353,0,1,1,37.782,32.5l-3-3.274a2.353,2.353,0,1,1,3.469-3.179Z"/><path class="b" d="M51.013,41.38a2.425,2.425,0,0,0-2.378-2.9H12.248a2.425,2.425,0,0,0-2.378,2.9l1.83,9.138a2.425,2.425,0,0,0,2.378,1.949H46.805a2.425,2.425,0,0,0,2.378-1.949Z"/><line class="b" x1="18.348" y1="48.788" x2="42.535" y2="48.788"/><circle class="b" cx="30.442" cy="11.01" r="9.51"/></svg>