<?xml version="1.0" encoding="UTF-8"?>
<!DOCTYPE svg PUBLIC "-//W3C//DTD SVG 1.1//EN" "http://www.w3.org/Graphics/SVG/1.1/DTD/svg11.dtd">
<!-- Creator: CorelDRAW -->
<svg xmlns="http://www.w3.org/2000/svg" xml:space="preserve" width="7.11111in" height="7.11111in" version="1.1" style="shape-rendering:geometricPrecision; text-rendering:geometricPrecision; image-rendering:optimizeQuality; fill-rule:evenodd; clip-rule:evenodd"
viewBox="0 0 7111 7111"
 xmlns:xlink="http://www.w3.org/1999/xlink">
 <defs>
  <style type="text/css">
   <![CDATA[
    .fil4 {fill:url(#id0)}
    .fil16 {fill:url(#id1)}
    .fil19 {fill:url(#id2)}
    .fil24 {fill:url(#id3)}
    .fil18 {fill:url(#id4)}
    .fil7 {fill:url(#id5)}
    .fil2 {fill:url(#id6)}
    .fil9 {fill:url(#id7)}
    .fil13 {fill:url(#id8)}
    .fil21 {fill:url(#id9)}
    .fil25 {fill:url(#id10)}
    .fil3 {fill:url(#id11)}
    .fil12 {fill:url(#id12)}
    .fil6 {fill:url(#id13)}
    .fil14 {fill:url(#id14)}
    .fil15 {fill:url(#id15)}
    .fil10 {fill:url(#id16)}
    .fil8 {fill:url(#id17)}
    .fil5 {fill:url(#id18)}
    .fil11 {fill:url(#id19)}
    .fil23 {fill:url(#id20)}
    .fil22 {fill:url(#id21)}
    .fil20 {fill:url(#id22)}
    .fil0 {fill:url(#id23)}
    .fil1 {fill:url(#id24)}
    .fil17 {fill:url(#id25)}
   ]]>
  </style>
  <linearGradient id="id0" gradientUnits="userSpaceOnUse" x1="6702.06" y1="1778.31" x2="6702.06" y2="1451.98">
   <stop offset="0" style="stop-opacity:1; stop-color:#E6E6E6"/>
   <stop offset="1" style="stop-opacity:1; stop-color:#CCCCCC"/>
  </linearGradient>
  <linearGradient id="id1" gradientUnits="userSpaceOnUse" xlink:href="#id0" x1="2671.29" y1="7111.11" x2="2671.29" y2="4895.69">
  </linearGradient>
  <linearGradient id="id2" gradientUnits="userSpaceOnUse" x1="1185.52" y1="6038.32" x2="1185.52" y2="5754.77">
   <stop offset="0" style="stop-opacity:1; stop-color:#AFAFAF"/>
   <stop offset="1" style="stop-opacity:1; stop-color:#9C9C9C"/>
  </linearGradient>
  <linearGradient id="id3" gradientUnits="userSpaceOnUse" x1="2651.19" y1="2825.55" x2="2651.19" y2="689.902">
   <stop offset="0" style="stop-opacity:1; stop-color:#8E4D21"/>
   <stop offset="1" style="stop-opacity:1; stop-color:#663300"/>
  </linearGradient>
  <linearGradient id="id4" gradientUnits="userSpaceOnUse" xlink:href="#id2" x1="4225.19" y1="7111.11" x2="4225.19" y2="6236.8">
  </linearGradient>
  <linearGradient id="id5" gradientUnits="userSpaceOnUse" xlink:href="#id0" x1="5208.51" y1="1330.32" x2="5208.51" y2="1077.17">
  </linearGradient>
  <linearGradient id="id6" gradientUnits="userSpaceOnUse" xlink:href="#id0" x1="4471.3" y1="1772.65" x2="4471.3" y2="1353.67">
  </linearGradient>
  <linearGradient id="id7" gradientUnits="userSpaceOnUse" xlink:href="#id0" x1="5988.22" y1="1952.89" x2="5988.22" y2="1574.1">
  </linearGradient>
  <linearGradient id="id8" gradientUnits="userSpaceOnUse" xlink:href="#id0" x1="5200.96" y1="2342.3" x2="5200.96" y2="1963.5">
  </linearGradient>
  <linearGradient id="id9" gradientUnits="userSpaceOnUse" x1="2651.8" y1="4949.71" x2="2651.8" y2="7111.11">
   <stop offset="0" style="stop-opacity:1; stop-color:#336699"/>
   <stop offset="1" style="stop-opacity:1; stop-color:#00CCFF"/>
  </linearGradient>
  <linearGradient id="id10" gradientUnits="userSpaceOnUse" xlink:href="#id0" x1="5597.5" y1="4632.96" x2="5597.5" y2="3378.24">
  </linearGradient>
  <linearGradient id="id11" gradientUnits="userSpaceOnUse" xlink:href="#id0" x1="4822.74" y1="757.429" x2="4822.74" y2="274.665">
  </linearGradient>
  <linearGradient id="id12" gradientUnits="userSpaceOnUse" xlink:href="#id0" x1="4922.68" y1="1916.58" x2="4922.68" y2="1663.43">
  </linearGradient>
  <linearGradient id="id13" gradientUnits="userSpaceOnUse" xlink:href="#id0" x1="5260.98" y1="596.539" x2="5260.98" y2="343.386">
  </linearGradient>
  <linearGradient id="id14" gradientUnits="userSpaceOnUse" xlink:href="#id0" x1="5938.97" y1="761.181" x2="5938.97" y2="508.035">
  </linearGradient>
  <linearGradient id="id15" gradientUnits="userSpaceOnUse" xlink:href="#id0" x1="6141.92" y1="2251.76" x2="6141.92" y2="1998.62">
  </linearGradient>
  <linearGradient id="id16" gradientUnits="userSpaceOnUse" xlink:href="#id0" x1="6148.12" y1="1429.44" x2="6148.12" y2="1176.3">
  </linearGradient>
  <linearGradient id="id17" gradientUnits="userSpaceOnUse" xlink:href="#id0" x1="4941.34" y1="1267.27" x2="4941.34" y2="782.287">
  </linearGradient>
  <linearGradient id="id18" gradientUnits="userSpaceOnUse" xlink:href="#id0" x1="6377" y1="764.61" x2="6377" y2="281.484">
  </linearGradient>
  <linearGradient id="id19" gradientUnits="userSpaceOnUse" xlink:href="#id0" x1="6415.29" y1="1366.4" x2="6415.29" y2="881.413">
  </linearGradient>
  <linearGradient id="id20" gradientUnits="userSpaceOnUse" x1="2671.31" y1="1374.38" x2="2671.31" y2="4634.5">
   <stop offset="0" style="stop-opacity:1; stop-color:#E0AC69"/>
   <stop offset="1" style="stop-opacity:1; stop-color:#F1C27D"/>
  </linearGradient>
  <linearGradient id="id21" gradientUnits="userSpaceOnUse" xlink:href="#id20" x1="2651.74" y1="4067.83" x2="2651.74" y2="5670.69">
  </linearGradient>
  <linearGradient id="id22" gradientUnits="userSpaceOnUse" xlink:href="#id9" x1="5597.5" y1="2846.58" x2="5597.5" y2="5164.62">
  </linearGradient>
  <linearGradient id="id23" gradientUnits="userSpaceOnUse" x1="5597.51" y1="0" x2="5597.51" y2="2588.28">
   <stop offset="0" style="stop-opacity:1; stop-color:red"/>
   <stop offset="1" style="stop-opacity:1; stop-color:#990000"/>
  </linearGradient>
  <linearGradient id="id24" gradientUnits="userSpaceOnUse" xlink:href="#id0" x1="5562.28" y1="2374.11" x2="5562.28" y2="124.035">
  </linearGradient>
  <linearGradient id="id25" gradientUnits="userSpaceOnUse" xlink:href="#id2" x1="1117.4" y1="7111.11" x2="1117.4" y2="6236.8">
  </linearGradient>
 </defs>
 <g id="Layer_x0020_1">
  <metadata id="CorelCorpID_0Corel-Layer"/>
  <path class="fil0" d="M6006 2588c-169,0 -319,-85 -408,-214 -90,129 -240,214 -409,214 -204,0 -385,-124 -460,-310 -106,-15 -204,-65 -281,-143 -91,-93 -142,-217 -142,-348 0,-18 1,-36 3,-54 -131,-101 -210,-259 -210,-426 0,-168 80,-327 212,-428 -3,-24 -5,-48 -5,-73 0,-131 50,-254 142,-347 76,-78 173,-128 279,-143 74,-189 255,-316 462,-316 169,0 319,85 409,214 89,-129 239,-214 408,-214 207,0 388,127 462,316 106,15 203,65 279,143 92,93 142,216 142,347 0,25 -2,49 -5,73 132,101 212,260 212,428 0,167 -79,325 -210,426 2,18 3,36 3,54 0,131 -50,255 -142,348 -77,78 -175,128 -281,143 -75,186 -256,310 -460,310z"/>
  <path class="fil1" d="M5598 2374c-13,-14 -25,-29 -36,-45 -11,16 -22,31 -35,45l0 -2250c13,14 24,29 35,45 11,-16 23,-31 36,-45l0 2250z"/>
  <path class="fil2" d="M4306 1773c1,-14 1,-27 3,-40 -11,-9 -22,-18 -33,-27 3,-1 5,-1 7,-2 114,-11 210,-65 266,-166 24,-43 44,-101 47,-151 1,-20 18,-34 37,-33 19,1 34,18 33,37 -6,97 -54,202 -122,270 -66,66 -148,100 -238,112z"/>
  <path class="fil3" d="M4687 323c13,-3 27,-5 40,-7 6,-14 12,-28 18,-41 26,12 51,29 72,45 53,39 96,90 121,151 35,89 22,180 -17,266 -8,17 -29,25 -47,17 -1,0 -2,-1 -3,-1 -15,-9 -22,-29 -14,-45 31,-68 43,-139 16,-210 -21,-52 -59,-94 -104,-126 -20,-15 -47,-32 -71,-41 -4,-2 -8,-5 -11,-8z"/>
  <path class="fil4" d="M6920 1704c-11,10 -22,20 -34,29 2,15 3,30 3,45 -75,3 -148,-12 -215,-50 -83,-49 -157,-138 -188,-230 -6,-18 4,-38 22,-44 19,-6 39,4 45,22 16,47 53,102 87,137 78,79 173,105 280,91z"/>
  <path class="fil5" d="M6453 281c5,12 10,23 15,35 16,2 31,5 47,9 -4,6 -9,10 -16,13 -24,10 -51,27 -71,42 -45,32 -83,74 -103,125 -28,71 -15,143 16,210 7,16 1,36 -15,45 -1,0 -2,1 -3,1 -17,9 -38,1 -46,-17 -40,-86 -53,-176 -17,-266 24,-61 68,-112 120,-151 22,-16 48,-33 73,-46z"/>
  <path class="fil6" d="M5156 597c132,0 248,-83 292,-207 7,-18 -3,-38 -21,-45 -19,-6 -39,4 -45,22 -40,111 -153,176 -269,155 -19,-3 -37,10 -41,29 -3,19 10,37 29,41 18,3 37,5 55,5z"/>
  <path class="fil7" d="M5313 1330c19,0 37,-1 55,-5 20,-3 32,-21 29,-40 -3,-20 -22,-32 -41,-29 -115,20 -229,-44 -268,-155 -7,-19 -27,-28 -45,-22 -18,7 -28,27 -22,45 44,124 161,206 292,206z"/>
  <path class="fil8" d="M4827 1267c55,0 108,-14 156,-41 72,-42 123,-109 145,-190 21,-80 10,-164 -31,-236 -10,-17 -31,-23 -48,-13 -17,10 -23,31 -13,48 32,56 40,121 24,183 -17,62 -57,114 -112,146 -49,29 -107,39 -163,29 -19,-3 -37,10 -40,29 -4,19 9,37 28,41 18,3 36,4 54,4z"/>
  <path class="fil9" d="M5959 1927c114,-65 174,-195 150,-324 -3,-19 -22,-32 -41,-28 -19,3 -32,22 -28,41 21,115 -45,228 -155,269 -18,6 -28,26 -21,45 7,18 27,27 45,21 18,-7 34,-14 50,-24z"/>
  <path class="fil10" d="M6043 1429c132,0 248,-82 292,-206 7,-18 -3,-38 -21,-45 -19,-6 -39,3 -45,22 -39,111 -153,176 -269,155 -19,-3 -37,10 -40,29 -4,19 9,37 28,41 18,3 37,4 55,4z"/>
  <path class="fil11" d="M6530 1366c18,0 36,-1 54,-4 19,-4 31,-22 28,-41 -3,-19 -22,-32 -41,-29 -55,10 -113,0 -162,-28 -56,-33 -96,-85 -112,-147 -17,-62 -8,-127 24,-183 10,-17 4,-38 -13,-48 -17,-10 -38,-4 -48,13 -42,72 -53,156 -31,236 21,81 73,148 145,190 47,27 101,41 156,41z"/>
  <path class="fil12" d="M4818 1917c131,0 248,-82 292,-207 6,-18 -3,-38 -22,-45 -18,-6 -38,4 -45,22 -39,111 -153,176 -268,155 -19,-3 -38,10 -41,29 -3,19 10,37 29,41 18,3 36,5 55,5z"/>
  <path class="fil13" d="M5172 2317c114,-66 174,-195 150,-325 -4,-19 -22,-31 -41,-28 -19,4 -32,22 -28,41 21,116 -45,229 -155,269 -18,7 -28,27 -21,45 7,18 27,28 45,21 17,-6 34,-14 50,-23z"/>
  <path class="fil14" d="M5834 761c132,0 248,-82 292,-206 7,-18 -3,-38 -21,-45 -19,-6 -39,3 -45,22 -40,110 -153,175 -269,155 -19,-3 -37,9 -41,29 -3,19 10,37 29,40 18,4 37,5 55,5z"/>
  <path class="fil15" d="M6037 2252c132,0 248,-82 292,-206 6,-19 -3,-39 -21,-45 -19,-7 -39,3 -45,21 -40,111 -153,176 -269,156 -19,-4 -37,9 -41,28 -3,19 10,38 29,41 18,3 37,5 55,5z"/>
  <path class="fil16" d="M5185 7111l-5028 0c-78,0 -142,-63 -142,-142l0 -966c0,-610 497,-1107 1108,-1107 1036,0 2057,0 3096,0 611,0 1108,497 1108,1107l0 966c0,79 -63,142 -142,142z"/>
  <path class="fil17" d="M1259 7111l-283 0 0 -732c0,-79 63,-142 141,-142 79,0 142,63 142,142l0 732z"/>
  <path class="fil18" d="M4367 7111l-284 0 0 -732c0,-79 64,-142 142,-142 78,0 142,63 142,142l0 732z"/>
  <path class="fil19" d="M1473 6038l-575 0c-78,0 -141,-63 -141,-141 0,-79 63,-142 141,-142l575 0c78,0 141,63 141,142 0,78 -63,141 -141,141z"/>
  <path class="fil20" d="M5598 5165c-640,0 -1160,-520 -1160,-1159 0,-639 520,-1159 1160,-1159 639,0 1159,520 1159,1159 0,639 -520,1159 -1159,1159z"/>
  <polygon class="fil21" points="1673,4951 2116,7111 3192,7111 3630,4950 3158,5110 2669,5461 2158,5110 "/>
  <path class="fil22" d="M2671 5671c-28,0 -56,-9 -80,-25l-869 -598c-33,-22 -54,-57 -60,-97 -6,-39 6,-79 31,-110 139,-168 179,-535 188,-643 7,-78 75,-136 153,-130 1115,93 157,91 1235,1 79,-7 147,51 153,129 10,109 50,475 188,643 25,31 37,70 32,109 -5,39 -26,74 -58,97l-830 597c-25,18 -54,27 -83,27z"/>
  <path class="fil23" d="M2652 4635c-87,0 -174,-37 -323,-110 -53,-26 -118,-59 -198,-95 -764,-354 -784,-1006 -803,-1637 -1,-35 -2,-70 -3,-105 -3,-78 58,-143 136,-146 38,-1 316,193 421,-3 929,-1726 1230,-1370 1728,1 49,134 242,1 271,2 78,3 140,68 137,146l0 9c-23,670 -47,1363 -846,1733 -79,37 -145,69 -198,95 -149,73 -236,110 -322,110z"/>
  <path class="fil24" d="M3876 2826c-24,0 -49,-7 -71,-20 -499,-289 -782,-565 -930,-741 -76,79 -168,125 -248,149 -80,202 -289,364 -622,483 -263,93 -510,126 -521,127 -63,8 -125,-27 -149,-87 -248,-607 6,-1286 17,-1315 9,-24 24,-45 44,-60 59,-46 144,-78 226,-99 -41,-55 -71,-98 -74,-101 -22,-32 -31,-71 -24,-110 8,-38 30,-71 63,-92 277,-177 596,-270 923,-270 497,0 965,219 1253,587 298,380 387,892 251,1441 -11,43 -41,79 -82,96 -18,8 -37,12 -56,12z"/>
  <path class="fil25" d="M5598 4633c-79,0 -142,-64 -142,-142l0 -344 -344 0c-78,0 -142,-63 -142,-141 0,-79 64,-142 142,-142l344 0 0 -344c0,-78 63,-142 142,-142 78,0 141,64 141,142l0 344 344 0c78,0 142,63 142,142 0,78 -64,141 -142,141l-344 0 0 344c0,78 -63,142 -141,142z"/>
 </g>
</svg>
